<svg width="66" height="66" viewBox="0 0 66 66" version="1.1" xmlns="http://www.w3.org/2000/svg" xmlns:xlink="http://www.w3.org/1999/xlink">
<title>arrow</title>
<desc>Created using Figma</desc>
<g id="Canvas" transform="translate(-2324 -556)">
<g id="arrow">
<g id="Ellipse">
<mask id="mask0_outline_ins">
<use xlink:href="#path0_fill" fill="white" transform="translate(2324 556)"/>
</mask>
<g mask="url(#mask0_outline_ins)">
<use xlink:href="#path1_stroke_2x" transform="translate(2324 556)" fill="#58595B"/>
</g>
</g>
<g id="Line">
<use xlink:href="#path2_stroke" transform="matrix(0.707107 0.707107 -0.707107 0.707107 2336.69 582.73)" fill="#6D92BE"/>
</g>
<g id="Line">
<use xlink:href="#path3_stroke" transform="matrix(0.707107 -0.707107 0.707107 0.707107 2357.4 603.12)" fill="#6D92BE"/>
</g>
</g>
</g>
<defs>
<path id="path0_fill" d="M 66 33C 66 51.2254 51.2254 66 33 66C 14.7746 66 0 51.2254 0 33C 0 14.7746 14.7746 0 33 0C 51.2254 0 66 14.7746 66 33Z"/>
<path id="path1_stroke_2x" d="M 63 33C 63 49.5685 49.5685 63 33 63L 33 69C 52.8823 69 69 52.8823 69 33L 63 33ZM 33 63C 16.4315 63 3 49.5685 3 33L -3 33C -3 52.8823 13.1177 69 33 69L 33 63ZM 3 33C 3 16.4315 16.4315 3 33 3L 33 -3C 13.1177 -3 -3 13.1177 -3 33L 3 33ZM 33 3C 49.5685 3 63 16.4315 63 33L 69 33C 69 13.1177 52.8823 -3 33 -3L 33 3Z"/>
<path id="path2_stroke" d="M 0 0L 28.9562 0L 28.9562 -4L 0 -4L 0 0Z"/>
<path id="path3_stroke" d="M 0 0L 28.9431 0L 28.9431 -4L 0 -4L 0 0Z"/>
</defs>
</svg>
