<svg width="180" height="107" viewBox="0 0 180 107" version="1.1" xmlns="http://www.w3.org/2000/svg" xmlns:xlink="http://www.w3.org/1999/xlink">
<title>Group</title>
<desc>Created using Figma</desc>
<g id="Canvas" transform="translate(-1856 -3441)">
<g id="Group">
<g id="T">
<use xlink:href="#path0_fill" transform="translate(1872.58 3434)" fill="#F2F2F2"/>
</g>
<g id="he">
<use xlink:href="#path1_fill" transform="translate(1941.01 3457.14)" fill="#F2F2F2"/>
</g>
<g id="Line 4">
<use xlink:href="#path2_stroke" transform="matrix(1 -2.43366e-16 2.46503e-16 1 1953.9 3547.7)" fill="#F2F2F2"/>
</g>
<g id="Line 4">
<use xlink:href="#path3_stroke" transform="translate(1858.73 3444.47)" fill="#F2F2F2"/>
</g>
<g id="Line 4">
<use xlink:href="#path4_stroke" transform="matrix(6.16257e-17 -1 1 6.08415e-17 2036 3547.7)" fill="#F2F2F2"/>
</g>
<g id="Line 4">
<use xlink:href="#path5_stroke" transform="matrix(-1.84877e-16 -1 1 -1.82525e-16 1858 3519.55)" fill="#F2F2F2"/>
</g>
<g id="Kepler&#226;&#128;&#153;s">
<use xlink:href="#path6_fill" transform="translate(1941.01 3482.45)" fill="#F2F2F2"/>
</g>
<g id="Lab">
<use xlink:href="#path7_fill" transform="translate(1941.01 3507.56)" fill="#F2F2F2"/>
</g>
<g id="Rectangle 10">
<mask id="mask0_outline_ins">
<use xlink:href="#path8_fill" fill="white" transform="translate(1864.54 3450.24)"/>
</mask>
<g mask="url(#mask0_outline_ins)">
<use xlink:href="#path9_stroke_2x" transform="translate(1864.54 3450.24)" fill="#F2F2F2"/>
</g>
</g>
</g>
</g>
<defs>
<path id="path0_fill" d="M 18.5059 95L 18.5059 91.7773C 19.873 91.5495 20.9473 91.2565 21.7285 90.8984C 22.5423 90.5078 23.1445 89.9707 23.5352 89.2871C 23.9258 88.6035 24.1699 87.7409 24.2676 86.6992C 24.3652 85.625 24.4141 84.3066 24.4141 82.7441L 24.4141 34.0625L 20.459 34.0625C 18.5059 34.0625 17.0085 34.2904 15.9668 34.7461C 14.9251 35.2018 14.0137 35.918 13.2324 36.8945C 12.4837 37.8711 11.8327 39.1895 11.2793 40.8496C 10.7259 42.4772 10.2702 44.0234 9.91211 45.4883L 3.22266 45.4883L 3.22266 28.3496L 60.6934 28.3496L 60.6934 45.4883L 54.0039 45.4883C 53.3854 43.2747 52.8971 41.6471 52.5391 40.6055C 52.181 39.5638 51.7741 38.6849 51.3184 37.9688C 50.8952 37.2201 50.4395 36.6016 49.9512 36.1133C 49.4629 35.625 48.9421 35.2344 48.3887 34.9414C 47.8353 34.6484 47.1354 34.4368 46.2891 34.3066C 45.4753 34.1439 44.401 34.0625 43.0664 34.0625L 39.5508 34.0625L 39.5508 82.7441C 39.5508 84.4694 39.5996 85.7878 39.6973 86.6992C 39.7949 87.5781 39.974 88.2943 40.2344 88.8477C 40.4948 89.401 40.804 89.8568 41.1621 90.2148C 41.5527 90.5404 42.0736 90.8496 42.7246 91.1426C 43.4082 91.403 44.3197 91.6146 45.459 91.7773L 45.459 95L 18.5059 95Z"/>
<path id="path1_fill" d="M 3.9209 12.417L 3.96387 12.4277C 4.52246 11.862 4.96289 11.4681 5.28516 11.2461C 5.61458 11.0169 5.93685 10.8451 6.25195 10.7305C 6.57422 10.6159 6.91797 10.5586 7.2832 10.5586C 7.67708 10.5586 8.02799 10.6051 8.33594 10.6982C 8.64388 10.7913 8.91244 10.9346 9.1416 11.1279C 9.37793 11.3141 9.56771 11.5469 9.71094 11.8262C 9.86133 12.0983 9.97233 12.4277 10.0439 12.8145C 10.1156 13.194 10.1514 13.6774 10.1514 14.2646L 10.1514 18.3145C 10.1514 18.9375 10.1764 19.3636 10.2266 19.5928C 10.2839 19.8148 10.3805 19.9902 10.5166 20.1191C 10.6598 20.2409 10.9427 20.359 11.3652 20.4736L 11.3652 21L 7.13281 21L 7.13281 20.4736C 7.41211 20.3877 7.61263 20.3125 7.73438 20.248C 7.85612 20.1836 7.95638 20.0941 8.03516 19.9795C 8.12109 19.8649 8.18555 19.6895 8.22852 19.4531C 8.27865 19.2096 8.30371 18.8444 8.30371 18.3574L 8.30371 15.543C 8.30371 14.5905 8.25358 13.8636 8.15332 13.3623C 8.06022 12.8538 7.87044 12.4743 7.58398 12.2236C 7.30469 11.973 6.91081 11.8477 6.40234 11.8477C 6.11589 11.8477 5.85807 11.8978 5.62891 11.998C 5.39974 12.0983 5.13477 12.2773 4.83398 12.5352C 4.5332 12.793 4.30404 13.0579 4.14648 13.3301C 3.99609 13.6022 3.9209 13.8923 3.9209 14.2002L 3.9209 18.3145C 3.9209 18.8014 3.93164 19.1488 3.95312 19.3564C 3.98177 19.5641 4.0319 19.7396 4.10352 19.8828C 4.17513 20.0189 4.28255 20.1335 4.42578 20.2266C 4.57617 20.3125 4.80534 20.3949 5.11328 20.4736L 5.11328 21L 0.859375 21L 0.859375 20.4736C 1.17448 20.3877 1.40007 20.3053 1.53613 20.2266C 1.6722 20.1478 1.77604 20.0475 1.84766 19.9258C 1.92643 19.804 1.98372 19.6286 2.01953 19.3994C 2.05534 19.1702 2.07324 18.8086 2.07324 18.3145L 2.07324 9.32324C 2.07324 8.63574 2.06608 8.15592 2.05176 7.88379C 2.0446 7.61165 2.01595 7.38249 1.96582 7.19629C 1.92285 7.00293 1.8584 6.85254 1.77246 6.74512C 1.69368 6.6377 1.58268 6.55176 1.43945 6.4873C 1.30339 6.42285 1.05273 6.3584 0.6875 6.29395L 0.6875 5.73535L 3.27637 5.62793L 3.9209 5.62793L 3.9209 12.417ZM 21.7637 19.1738C 21.3053 19.6536 20.8828 20.0296 20.4961 20.3018C 20.1165 20.5739 19.6976 20.7887 19.2393 20.9463C 18.7809 21.0967 18.276 21.1719 17.7246 21.1719C 16.2493 21.1719 15.1357 20.7314 14.3838 19.8506C 13.6318 18.9626 13.2559 17.6556 13.2559 15.9297C 13.2559 14.8626 13.4456 13.9209 13.8252 13.1045C 14.2119 12.2881 14.7598 11.6579 15.4688 11.2139C 16.1777 10.7699 16.9941 10.5479 17.918 10.5479C 18.6413 10.5479 19.2572 10.6624 19.7656 10.8916C 20.2741 11.1208 20.6787 11.4359 20.9795 11.8369C 21.2874 12.2308 21.5238 12.7321 21.6885 13.3408C 21.8604 13.9424 21.957 14.7301 21.9785 15.7041L 15.2109 15.7041L 15.2109 15.8975C 15.2109 16.7425 15.304 17.4551 15.4902 18.0352C 15.6836 18.6081 15.9951 19.0592 16.4248 19.3887C 16.8617 19.7109 17.4274 19.8721 18.1221 19.8721C 18.7093 19.8721 19.2357 19.7646 19.7012 19.5498C 20.1738 19.3278 20.6429 18.9697 21.1084 18.4756L 21.7637 19.1738ZM 19.959 14.8125C 19.916 14.0391 19.8193 13.4089 19.6689 12.9219C 19.5186 12.4277 19.293 12.0518 18.9922 11.7939C 18.6914 11.529 18.2975 11.3965 17.8105 11.3965C 17.0729 11.3965 16.4821 11.6937 16.0381 12.2881C 15.6012 12.8753 15.3434 13.7168 15.2646 14.8125L 19.959 14.8125Z"/>
<path id="path2_stroke" d="M 0 0L 79.9184 0L 79.9184 -3L 0 -3L 0 0Z"/>
<path id="path3_stroke" d="M 0 0L 39.2327 0L 39.2327 -3L 0 -3L 0 0Z"/>
<path id="path4_stroke" d="M 0 0L 39.7041 0L 39.7041 -3L 0 -3L 0 0Z"/>
<path id="path5_stroke" d="M 0 1.5L 77.2426 1.5L 77.2426 -1.5L 0 -1.5L 0 1.5Z"/>
<path id="path6_fill" d="M 4.55469 12.9648L 4.87695 12.9648C 5.14909 12.9648 5.39616 12.9219 5.61816 12.8359C 5.84733 12.75 6.10156 12.5889 6.38086 12.3525C 6.66016 12.1162 7.08626 11.6758 7.65918 11.0312C 8.34668 10.265 8.81576 9.70996 9.06641 9.36621C 9.38151 8.95801 9.59277 8.61426 9.7002 8.33496C 9.78613 8.12728 9.8291 7.92676 9.8291 7.7334C 9.8291 7.44694 9.74674 7.23926 9.58203 7.11035C 9.41732 6.97428 9.19173 6.89193 8.90527 6.86328L 8.90527 6.33691L 13.5889 6.33691L 13.5889 6.86328C 13.3597 6.91341 13.1341 7.00293 12.9121 7.13184C 12.6901 7.25358 12.4609 7.42546 12.2246 7.64746C 11.9954 7.8623 11.6553 8.22038 11.2041 8.72168L 7.59473 12.7822L 11.5049 18.4648C 11.9202 19.0664 12.2461 19.4889 12.4824 19.7324C 12.7188 19.9688 12.9443 20.1442 13.1592 20.2588C 13.374 20.3662 13.6032 20.4378 13.8467 20.4736L 13.8467 21L 9.10938 21L 9.10938 20.4736C 9.37435 20.4521 9.56771 20.402 9.68945 20.3232C 9.8112 20.2445 9.87207 20.1263 9.87207 19.9688C 9.87207 19.8398 9.8291 19.6859 9.74316 19.5068C 9.66439 19.3206 9.53548 19.0986 9.35645 18.8408L 6.85352 15.1133C 6.5599 14.6693 6.34505 14.3757 6.20898 14.2324C 6.07292 14.0892 5.92611 13.9854 5.76855 13.9209C 5.611 13.8493 5.39974 13.8135 5.13477 13.8135L 4.56543 13.8135L 4.56543 18.3145C 4.56543 18.7943 4.57975 19.1452 4.6084 19.3672C 4.64421 19.5892 4.69792 19.7646 4.76953 19.8936C 4.84831 20.0225 4.95931 20.1299 5.10254 20.2158C 5.25293 20.3018 5.49284 20.3877 5.82227 20.4736L 5.82227 21L 1.2998 21L 1.2998 20.4736C 1.74382 20.359 2.04102 20.2337 2.19141 20.0977C 2.3418 19.9544 2.43848 19.7539 2.48145 19.4961C 2.53158 19.2383 2.55664 18.8444 2.55664 18.3145L 2.55664 9.02246C 2.55664 8.52832 2.53874 8.17025 2.50293 7.94824C 2.46712 7.71908 2.40625 7.54362 2.32031 7.42188C 2.24154 7.29297 2.13411 7.19271 1.99805 7.12109C 1.86198 7.04232 1.62923 6.95638 1.2998 6.86328L 1.2998 6.33691L 5.82227 6.33691L 5.82227 6.86328C 5.50716 6.94206 5.27799 7.02083 5.13477 7.09961C 4.9987 7.17839 4.8877 7.27865 4.80176 7.40039C 4.72298 7.51497 4.66211 7.69043 4.61914 7.92676C 4.58333 8.16309 4.56543 8.52832 4.56543 9.02246L 4.55469 12.9648ZM 22.9883 19.1738C 22.5299 19.6536 22.1074 20.0296 21.7207 20.3018C 21.3411 20.5739 20.9222 20.7887 20.4639 20.9463C 20.0055 21.0967 19.5007 21.1719 18.9492 21.1719C 17.474 21.1719 16.3604 20.7314 15.6084 19.8506C 14.8564 18.9626 14.4805 17.6556 14.4805 15.9297C 14.4805 14.8626 14.6702 13.9209 15.0498 13.1045C 15.4365 12.2881 15.9844 11.6579 16.6934 11.2139C 17.4023 10.7699 18.2188 10.5479 19.1426 10.5479C 19.8659 10.5479 20.4818 10.6624 20.9902 10.8916C 21.4987 11.1208 21.9033 11.4359 22.2041 11.8369C 22.512 12.2308 22.7484 12.7321 22.9131 13.3408C 23.085 13.9424 23.1816 14.7301 23.2031 15.7041L 16.4355 15.7041L 16.4355 15.8975C 16.4355 16.7425 16.5286 17.4551 16.7148 18.0352C 16.9082 18.6081 17.2197 19.0592 17.6494 19.3887C 18.0863 19.7109 18.652 19.8721 19.3467 19.8721C 19.9339 19.8721 20.4603 19.7646 20.9258 19.5498C 21.3984 19.3278 21.8675 18.9697 22.333 18.4756L 22.9883 19.1738ZM 21.1836 14.8125C 21.1406 14.0391 21.0439 13.4089 20.8936 12.9219C 20.7432 12.4277 20.5176 12.0518 20.2168 11.7939C 19.916 11.529 19.5221 11.3965 19.0352 11.3965C 18.2975 11.3965 17.7067 11.6937 17.2627 12.2881C 16.8258 12.8753 16.568 13.7168 16.4893 14.8125L 21.1836 14.8125ZM 28.0586 20.6777L 28.0586 22.9443C 28.0586 23.4098 28.0729 23.7572 28.1016 23.9863C 28.1374 24.2155 28.1947 24.3945 28.2734 24.5234C 28.3594 24.6595 28.4775 24.7705 28.6279 24.8564C 28.7855 24.9424 29.0361 25.0212 29.3799 25.0928L 29.3799 25.6191L 24.9971 25.6191L 24.9971 25.0928C 25.2549 25.0212 25.4626 24.946 25.6201 24.8672C 25.7848 24.7956 25.9102 24.6846 25.9961 24.5342C 26.082 24.391 26.1393 24.194 26.168 23.9434C 26.1966 23.6927 26.2109 23.3597 26.2109 22.9443L 26.2109 13.7275C 26.2109 13.2119 26.2038 12.8467 26.1895 12.6318C 26.1751 12.4098 26.1465 12.2272 26.1035 12.084C 26.0605 11.9408 25.9961 11.8226 25.9102 11.7295C 25.8314 11.6364 25.7204 11.5576 25.5771 11.4932C 25.4411 11.4287 25.2119 11.3643 24.8896 11.2998L 24.8896 10.7305L 27.4141 10.6338L 28.0693 10.6338L 27.9297 12.3848L 28.0908 12.4277C 28.5348 11.9766 28.8857 11.6507 29.1436 11.4502C 29.4014 11.2425 29.6663 11.0706 29.9385 10.9346C 30.2178 10.7985 30.4827 10.7018 30.7334 10.6445C 30.9912 10.5872 31.2633 10.5586 31.5498 10.5586C 32.7314 10.5586 33.6374 11.0026 34.2676 11.8906C 34.9049 12.7715 35.2236 14.0641 35.2236 15.7686C 35.2236 16.9502 35.0446 17.9456 34.6865 18.7549C 34.3285 19.557 33.8057 20.1621 33.1182 20.5703C 32.4378 20.9714 31.625 21.1719 30.6797 21.1719C 30.1497 21.1719 29.6699 21.1253 29.2402 21.0322C 28.8105 20.9463 28.4167 20.8281 28.0586 20.6777ZM 28.0586 17.1328C 28.0586 17.8203 28.1016 18.3503 28.1875 18.7227C 28.2734 19.0951 28.4238 19.3994 28.6387 19.6357C 28.8607 19.8649 29.1185 20.0368 29.4121 20.1514C 29.7129 20.266 30.1068 20.3232 30.5938 20.3232C 31.4603 20.3232 32.112 19.9652 32.5488 19.249C 32.9857 18.5257 33.2041 17.4622 33.2041 16.0586C 33.2041 13.2513 32.3841 11.8477 30.7441 11.8477C 30.3431 11.8477 29.9958 11.9121 29.7021 12.041C 29.4157 12.1628 29.1292 12.3633 28.8428 12.6426C 28.5563 12.9219 28.3522 13.194 28.2305 13.459C 28.1159 13.7168 28.0586 13.9961 28.0586 14.2969L 28.0586 17.1328ZM 40.2617 18.3145C 40.2617 18.9303 40.2904 19.36 40.3477 19.6035C 40.4049 19.8398 40.5124 20.0225 40.6699 20.1514C 40.8346 20.2731 41.0996 20.3805 41.4648 20.4736L 41.4648 21L 37.2002 21L 37.2002 20.4736C 37.5583 20.3805 37.8053 20.2839 37.9414 20.1836C 38.0846 20.0833 38.1849 19.9652 38.2422 19.8291C 38.3066 19.6859 38.3496 19.4961 38.3711 19.2598C 38.3997 19.0163 38.4141 18.7012 38.4141 18.3145L 38.4141 9.32324C 38.4141 8.63574 38.4069 8.15592 38.3926 7.88379C 38.3854 7.61165 38.3568 7.38249 38.3066 7.19629C 38.2637 7.00293 38.1992 6.85254 38.1133 6.74512C 38.0345 6.6377 37.9235 6.55176 37.7803 6.4873C 37.6442 6.42285 37.3936 6.3584 37.0283 6.29395L 37.0283 5.73535L 39.6172 5.62793L 40.2617 5.62793L 40.2617 18.3145ZM 51.9492 19.1738C 51.4909 19.6536 51.0684 20.0296 50.6816 20.3018C 50.3021 20.5739 49.8831 20.7887 49.4248 20.9463C 48.9665 21.0967 48.4616 21.1719 47.9102 21.1719C 46.4349 21.1719 45.3213 20.7314 44.5693 19.8506C 43.8174 18.9626 43.4414 17.6556 43.4414 15.9297C 43.4414 14.8626 43.6312 13.9209 44.0107 13.1045C 44.3975 12.2881 44.9453 11.6579 45.6543 11.2139C 46.3633 10.7699 47.1797 10.5479 48.1035 10.5479C 48.8268 10.5479 49.4427 10.6624 49.9512 10.8916C 50.4596 11.1208 50.8643 11.4359 51.165 11.8369C 51.473 12.2308 51.7093 12.7321 51.874 13.3408C 52.0459 13.9424 52.1426 14.7301 52.1641 15.7041L 45.3965 15.7041L 45.3965 15.8975C 45.3965 16.7425 45.4896 17.4551 45.6758 18.0352C 45.8691 18.6081 46.1807 19.0592 46.6104 19.3887C 47.0472 19.7109 47.613 19.8721 48.3076 19.8721C 48.8949 19.8721 49.4212 19.7646 49.8867 19.5498C 50.3594 19.3278 50.8285 18.9697 51.2939 18.4756L 51.9492 19.1738ZM 50.1445 14.8125C 50.1016 14.0391 50.0049 13.4089 49.8545 12.9219C 49.7041 12.4277 49.4785 12.0518 49.1777 11.7939C 48.877 11.529 48.4831 11.3965 47.9961 11.3965C 47.2585 11.3965 46.6676 11.6937 46.2236 12.2881C 45.7868 12.8753 45.529 13.7168 45.4502 14.8125L 50.1445 14.8125ZM 57.0088 12.5137L 57.1592 12.5459C 57.5531 12.0661 57.9183 11.6901 58.2549 11.418C 58.5915 11.1387 58.9531 10.9238 59.3398 10.7734C 59.7337 10.623 60.1777 10.5479 60.6719 10.5479C 61.0872 10.5479 61.4632 10.5693 61.7998 10.6123L 61.7998 13.083L 60.5859 13.083C 60.4141 12.6963 60.2314 12.417 60.0381 12.2451C 59.8447 12.0661 59.5798 11.9766 59.2432 11.9766C 58.9854 11.9766 58.7275 12.0518 58.4697 12.2021C 58.2191 12.3525 57.9756 12.571 57.7393 12.8574C 57.5029 13.1439 57.3382 13.4124 57.2451 13.6631C 57.1592 13.9137 57.1162 14.2109 57.1162 14.5547L 57.1162 18.3145C 57.1162 18.9661 57.1556 19.4173 57.2344 19.668C 57.3132 19.9115 57.4421 20.0905 57.6211 20.2051C 57.8073 20.3197 58.083 20.4092 58.4482 20.4736L 58.4482 21L 54.1191 21L 54.1191 20.4736C 54.3913 20.3877 54.5846 20.3125 54.6992 20.248C 54.821 20.1836 54.9248 20.0941 55.0107 19.9795C 55.0967 19.8649 55.1611 19.6895 55.2041 19.4531C 55.2471 19.2168 55.2686 18.848 55.2686 18.3467L 55.2686 13.6631C 55.2686 13.2048 55.2614 12.8359 55.2471 12.5566C 55.2327 12.2773 55.1826 12.0553 55.0967 11.8906C 55.0107 11.7188 54.8783 11.5934 54.6992 11.5146C 54.5273 11.4287 54.2803 11.3571 53.958 11.2998L 53.958 10.7412L 56.4717 10.6338L 57.127 10.6338L 57.0088 12.5137ZM 65.6455 5.62793C 65.7314 5.86426 65.7959 6.12207 65.8389 6.40137C 65.889 6.68066 65.9141 6.9349 65.9141 7.16406C 65.9141 7.63672 65.8424 8.05566 65.6992 8.4209C 65.556 8.78613 65.3268 9.15853 65.0117 9.53809C 64.7038 9.91048 64.2311 10.376 63.5938 10.9346L 62.9385 10.29C 63.2894 9.86751 63.5472 9.44141 63.7119 9.01172C 63.8766 8.57487 63.959 8.04492 63.959 7.42188C 63.959 7.20703 63.9482 6.97786 63.9268 6.73438C 63.9053 6.49089 63.8516 6.12207 63.7656 5.62793L 65.6455 5.62793ZM 75.292 13.083L 74.2607 13.083C 74.1032 12.6533 73.917 12.3167 73.7021 12.0732C 73.4873 11.8226 73.2438 11.6471 72.9717 11.5469C 72.6995 11.4466 72.3665 11.3965 71.9727 11.3965C 71.3997 11.3965 70.9414 11.5326 70.5977 11.8047C 70.2611 12.0697 70.0928 12.4349 70.0928 12.9004C 70.0928 13.2298 70.1608 13.502 70.2969 13.7168C 70.4329 13.9316 70.6442 14.1322 70.9307 14.3184C 71.2171 14.5046 71.722 14.7516 72.4453 15.0596C 73.1758 15.3747 73.738 15.6647 74.1318 15.9297C 74.5329 16.1947 74.8444 16.5026 75.0664 16.8535C 75.2956 17.2044 75.4102 17.6234 75.4102 18.1104C 75.4102 18.6761 75.3135 19.1523 75.1201 19.5391C 74.9268 19.9258 74.6546 20.2409 74.3037 20.4844C 73.9528 20.7279 73.5339 20.9033 73.0469 21.0107C 72.5671 21.1182 72.0407 21.1719 71.4678 21.1719C 70.8662 21.1719 70.2826 21.1253 69.7168 21.0322C 69.151 20.9463 68.5996 20.8317 68.0625 20.6885L 68.0625 18.4434L 69.1152 18.4434C 69.3086 19.1022 69.5951 19.582 69.9746 19.8828C 70.3542 20.1764 70.877 20.3232 71.543 20.3232C 71.8008 20.3232 72.0514 20.2982 72.2949 20.248C 72.5456 20.1908 72.7676 20.1012 72.9609 19.9795C 73.1543 19.8506 73.3083 19.6787 73.4229 19.4639C 73.5374 19.249 73.5947 18.9805 73.5947 18.6582C 73.5947 18.293 73.5231 17.9958 73.3799 17.7666C 73.2367 17.5374 73.0146 17.3298 72.7139 17.1436C 72.4131 16.9502 71.8831 16.6924 71.124 16.3701C 70.4723 16.098 69.9495 15.833 69.5557 15.5752C 69.1618 15.3174 68.8503 15.013 68.6211 14.6621C 68.3991 14.3112 68.2881 13.8958 68.2881 13.416C 68.2881 12.8288 68.4456 12.3203 68.7607 11.8906C 69.083 11.4538 69.5449 11.1208 70.1465 10.8916C 70.748 10.6624 71.4535 10.5479 72.2627 10.5479C 72.7354 10.5479 73.1901 10.5729 73.627 10.623C 74.071 10.666 74.626 10.7555 75.292 10.8916L 75.292 13.083Z"/>
<path id="path7_fill" d="M 4.56543 20.0117L 7.37988 20.0117C 7.68783 20.0117 7.94564 19.9938 8.15332 19.958C 8.361 19.9222 8.53646 19.8685 8.67969 19.7969C 8.83008 19.7181 8.96256 19.6143 9.07715 19.4854C 9.19889 19.3493 9.31348 19.1738 9.4209 18.959C 9.52832 18.7441 9.62858 18.4756 9.72168 18.1533C 9.82194 17.8239 9.94369 17.3333 10.0869 16.6816L 11.1719 16.6816L 10.957 21L 1.2998 21L 1.2998 20.4736C 1.74382 20.359 2.04102 20.2337 2.19141 20.0977C 2.3418 19.9544 2.43848 19.7539 2.48145 19.4961C 2.53158 19.2383 2.55664 18.8444 2.55664 18.3145L 2.55664 9.02246C 2.55664 8.52832 2.53874 8.17025 2.50293 7.94824C 2.46712 7.71908 2.40625 7.54362 2.32031 7.42188C 2.24154 7.29297 2.13411 7.19271 1.99805 7.12109C 1.86198 7.04232 1.62923 6.95638 1.2998 6.86328L 1.2998 6.33691L 5.82227 6.33691L 5.82227 6.86328C 5.50716 6.94922 5.28158 7.028 5.14551 7.09961C 5.0166 7.16406 4.90918 7.25358 4.82324 7.36816C 4.7373 7.48275 4.67285 7.6582 4.62988 7.89453C 4.58691 8.13086 4.56543 8.50684 4.56543 9.02246L 4.56543 20.0117ZM 19.0674 19.4639L 18.9062 19.4209C 18.2832 20.0583 17.696 20.5094 17.1445 20.7744C 16.6003 21.0394 16.0202 21.1719 15.4043 21.1719C 14.86 21.1719 14.3802 21.068 13.9648 20.8604C 13.5495 20.6455 13.2308 20.3483 13.0088 19.9688C 12.7868 19.582 12.6758 19.138 12.6758 18.6367C 12.6758 17.5911 13.1914 16.7855 14.2227 16.2197C 15.2611 15.6468 16.8151 15.3138 18.8848 15.2207L 18.8848 14.5225C 18.8848 13.7777 18.8132 13.1904 18.6699 12.7607C 18.5267 12.3311 18.3011 12.016 17.9932 11.8154C 17.6852 11.6149 17.2734 11.5146 16.7578 11.5146C 16.1992 11.5146 15.748 11.6615 15.4043 11.9551C 15.0677 12.2487 14.8135 12.6891 14.6416 13.2764L 13.2344 13.2764L 13.2344 11.8799C 13.9219 11.5218 14.4948 11.2604 14.9531 11.0957C 15.4115 10.9238 15.8698 10.7913 16.3281 10.6982C 16.7865 10.598 17.252 10.5479 17.7246 10.5479C 18.4336 10.5479 19.0029 10.6624 19.4326 10.8916C 19.8623 11.1136 20.1846 11.4574 20.3994 11.9229C 20.6143 12.3883 20.7217 13.0902 20.7217 14.0283L 20.7217 17.7666C 20.7217 18.2965 20.7253 18.6725 20.7324 18.8945C 20.7396 19.1094 20.7611 19.3099 20.7969 19.4961C 20.8327 19.6823 20.8864 19.8327 20.958 19.9473C 21.0296 20.0547 21.1335 20.1478 21.2695 20.2266C 21.4128 20.3053 21.6419 20.3877 21.957 20.4736L 21.957 21L 19.0137 21L 19.0674 19.4639ZM 18.8848 16.1016C 17.431 16.1159 16.3424 16.3092 15.6191 16.6816C 14.8958 17.054 14.5342 17.6162 14.5342 18.3682C 14.5342 18.7764 14.6165 19.0986 14.7812 19.335C 14.946 19.5713 15.1536 19.736 15.4043 19.8291C 15.6549 19.915 15.9521 19.958 16.2959 19.958C 16.7829 19.958 17.2233 19.8398 17.6172 19.6035C 18.0182 19.3672 18.3298 19.0664 18.5518 18.7012C 18.7738 18.3359 18.8848 17.9743 18.8848 17.6162L 18.8848 16.1016ZM 26.3076 12.417L 26.3506 12.4277C 26.8519 11.9049 27.2673 11.5254 27.5967 11.2891C 27.9333 11.0527 28.277 10.8737 28.6279 10.752C 28.986 10.623 29.3763 10.5586 29.7988 10.5586C 30.5651 10.5586 31.2204 10.7555 31.7646 11.1494C 32.3161 11.5361 32.7386 12.1198 33.0322 12.9004C 33.333 13.681 33.4834 14.637 33.4834 15.7686C 33.4834 16.9359 33.3044 17.9242 32.9463 18.7334C 32.5954 19.5355 32.0726 20.1442 31.3779 20.5596C 30.6904 20.9678 29.874 21.1719 28.9287 21.1719C 28.3988 21.1719 27.8975 21.1217 27.4248 21.0215C 26.9593 20.9284 26.4688 20.7601 25.9531 20.5166L 25.2012 21.1719L 24.46 21L 24.46 9.32324C 24.46 8.63574 24.4528 8.15592 24.4385 7.88379C 24.4313 7.61165 24.4027 7.38249 24.3525 7.19629C 24.3096 7.00293 24.2451 6.85254 24.1592 6.74512C 24.0804 6.6377 23.9694 6.55176 23.8262 6.4873C 23.6901 6.42285 23.4395 6.3584 23.0742 6.29395L 23.0742 5.73535L 25.6738 5.62793L 26.3076 5.62793L 26.3076 12.417ZM 26.3076 17.1328C 26.3076 17.6842 26.3327 18.1247 26.3828 18.4541C 26.4329 18.7764 26.5153 19.0449 26.6299 19.2598C 26.7516 19.4746 26.9235 19.6715 27.1455 19.8506C 27.3747 20.0296 27.6289 20.1549 27.9082 20.2266C 28.1875 20.291 28.499 20.3232 28.8428 20.3232C 29.7021 20.3232 30.3538 19.9723 30.7979 19.2705C 31.2419 18.5687 31.4639 17.516 31.4639 16.1123C 31.4639 14.6943 31.2598 13.6309 30.8516 12.9219C 30.4505 12.2057 29.8418 11.8477 29.0254 11.8477C 28.6172 11.8477 28.2699 11.9121 27.9834 12.041C 27.6969 12.1628 27.4105 12.3561 27.124 12.6211C 26.8447 12.8861 26.637 13.1475 26.501 13.4053C 26.3721 13.6631 26.3076 13.9567 26.3076 14.2861L 26.3076 17.1328Z"/>
<path id="path8_fill" d="M 0 0L 164.922 0L 164.922 90.9586L 0 90.9586L 0 0Z"/>
<path id="path9_stroke_2x" d="M 0 0L 0 -3L -3 -3L -3 0L 0 0ZM 164.922 0L 167.922 0L 167.922 -3L 164.922 -3L 164.922 0ZM 164.922 90.9586L 164.922 93.9586L 167.922 93.9586L 167.922 90.9586L 164.922 90.9586ZM 0 90.9586L -3 90.9586L -3 93.9586L 0 93.9586L 0 90.9586ZM 0 3L 164.922 3L 164.922 -3L 0 -3L 0 3ZM 161.922 0L 161.922 90.9586L 167.922 90.9586L 167.922 0L 161.922 0ZM 164.922 87.9586L 0 87.9586L 0 93.9586L 164.922 93.9586L 164.922 87.9586ZM 3 90.9586L 3 0L -3 0L -3 90.9586L 3 90.9586Z"/>
</defs>
</svg>
