<svg width="64" height="64" viewBox="0 0 64 64" version="1.1" xmlns="http://www.w3.org/2000/svg" xmlns:xlink="http://www.w3.org/1999/xlink">
<title>vk_logo</title>
<desc>Created using Figma</desc>
<g id="Canvas" transform="translate(-3177 -1495)">
<g id="vk_logo">
<g id="Ellipse">
<use xlink:href="#path0_fill" transform="translate(3177 1495)" fill="url(#paint0_linear)"/>
<mask id="mask0_outline_ins">
<use xlink:href="#path0_fill" fill="white" transform="translate(3177 1495)"/>
</mask>
<g mask="url(#mask0_outline_ins)">
<use xlink:href="#path1_stroke_2x" transform="translate(3177 1495)" fill="#333333"/>
</g>
</g>
<g id="vk">
<use xlink:href="#path2_fill" transform="translate(3191 1506)" fill="url(#paint2_linear)"/>
</g>
</g>
</g>
<defs>
<linearGradient id="paint0_linear" x1="0" y1="0" x2="1" y2="0" gradientUnits="userSpaceOnUse" gradientTransform="matrix(3.91887e-15 64 -64 3.91887e-15 64 -3.91887e-15)">
<stop offset="0" stop-color="#BDBDBD"/>
<stop offset="0.475138" stop-color="#58595B"/>
</linearGradient>
<linearGradient id="paint2_linear" x1="0" y1="0" x2="1" y2="0" gradientUnits="userSpaceOnUse" gradientTransform="matrix(2.32683e-15 43 -38 2.63299e-15 38 -2.63299e-15)">
<stop offset="0.38674" stop-color="#FFFFFF"/>
<stop offset="0.872928" stop-color="#A6A6A6"/>
</linearGradient>
<path id="path0_fill" d="M 64 32C 64 49.6731 49.6731 64 32 64C 14.3269 64 0 49.6731 0 32C 0 14.3269 14.3269 0 32 0C 49.6731 0 64 14.3269 64 32Z"/>
<path id="path1_stroke_2x" d="M 62 32C 62 48.5685 48.5685 62 32 62L 32 66C 50.7777 66 66 50.7777 66 32L 62 32ZM 32 62C 15.4315 62 2 48.5685 2 32L -2 32C -2 50.7777 13.2223 66 32 66L 32 62ZM 2 32C 2 15.4315 15.4315 2 32 2L 32 -2C 13.2223 -2 -2 13.2223 -2 32L 2 32ZM 32 2C 48.5685 2 62 15.4315 62 32L 66 32C 66 13.2223 50.7777 -2 32 -2L 32 2Z"/>
<path id="path2_fill" d="M 9.07031 26.7949L 12.6035 13.9805L 17.9121 13.9805L 11.4961 33L 6.64453 33L 0.228516 13.9805L 5.53711 13.9805L 9.07031 26.7949ZM 27.0703 25.3711L 25.2422 27.1992L 25.2422 33L 20.1621 33L 20.1621 6L 25.2422 6L 25.2422 20.959L 26.2266 19.6934L 31.0957 13.9805L 37.1953 13.9805L 30.3223 21.9082L 37.793 33L 31.957 33L 27.0703 25.3711Z"/>
</defs>
</svg>
